<?xml version="1.0" encoding="UTF-8"?>
<svg width="16px" height="16px" viewBox="0 0 16 16" version="1.1" xmlns="http://www.w3.org/2000/svg" xmlns:xlink="http://www.w3.org/1999/xlink">
    <title>举报</title>
    <g id="控件" stroke="none" stroke-width="1" fill="none" fill-rule="evenodd">
        <g id="3.通用元素/3.2图标/线性/16/举报">
            <rect id="矩形" x="0" y="0" width="16" height="16"></rect>
            <g id="举报_report" transform="translate(1.427240, 1.000000)" stroke="#505663">
                <path d="M10.5727602,10.5 L2.57276016,10.5 L2.57276016,6.69230769 C2.57276016,4.65310769 4.36362683,3 6.57276016,3 C8.7818935,3 10.5727602,4.65310769 10.5727602,6.69230769 L10.5727602,10.5 Z" id="路径" stroke-linejoin="round"></path>
                <line x1="0.572760162" y1="13" x2="12.5727602" y2="13" id="路径" stroke-linecap="round" stroke-linejoin="round"></line>
                <line x1="0" y1="3.54086657" x2="1" y2="3.87852804" id="路径" stroke-linecap="round"></line>
                <line x1="3.57276016" y1="0" x2="3.9060935" y2="1.01298438" id="路径" stroke-linecap="round"></line>
                <line x1="2.21152826" y1="2.09270166" x2="1.21152826" y2="1.07971728" id="路径" stroke-linecap="round"></line>
            </g>
            <g id="举报_report" transform="translate(0.927104, 0.499865)" fill="#505663" fill-rule="nonzero">
                <path d="M7.07289606,3.00013535 C9.54962972,3.00013535 11.5728961,4.86776581 11.5728961,7.19244304 L11.5728961,11.0001354 C11.5728961,11.2762777 11.3490384,11.5001354 11.0728961,11.5001354 L3.07289606,11.5001354 C2.79675368,11.5001354 2.57289606,11.2762777 2.57289606,11.0001354 L2.57289606,7.19244304 C2.57289606,4.86776581 4.59616239,3.00013535 7.07289606,3.00013535 Z M7.07289606,4.00013535 C5.13136306,4.00013535 3.57289606,5.43872027 3.57289606,7.19244304 L3.57213589,10.5001354 L10.5721359,10.5001354 L10.5728961,7.19244304 C10.5728961,5.4971777 9.11659523,4.09639116 7.26572894,4.00488902 L7.07289606,4.00013535 Z M0.660093881,3.56727897 L1.66009388,3.90494043 C1.92172385,3.99328278 2.06220121,4.27699141 1.97385885,4.53862137 C1.8855165,4.80025134 1.60180787,4.9407287 1.34017791,4.85238635 L0.340177908,4.51472488 C0.0785479415,4.42638253 -0.061929422,4.1426739 0.0264129346,3.88104394 C0.114755291,3.61941397 0.398463915,3.47893661 0.660093881,3.56727897 Z M2.06749068,1.22858708 L3.06749068,2.24157146 C3.26148928,2.43808902 3.25944727,2.75466492 3.06292971,2.94866353 C2.86641215,3.14266214 2.54983625,3.14062013 2.35583764,2.94410257 L1.35583764,1.93111818 C1.16183903,1.73460062 1.16388105,1.41802472 1.36039861,1.22402611 C1.55691616,1.03002751 1.87349207,1.03206952 2.06749068,1.22858708 Z M4.54784297,0.343848993 L4.88117631,1.35683337 C4.96749088,1.61913931 4.82482169,1.90175208 4.56251575,1.98806665 C4.30020981,2.07438122 4.01759704,1.93171203 3.93128247,1.66940609 L3.59794914,0.656421708 C3.51163457,0.394115768 3.65430376,0.111503004 3.9166097,0.0251884326 C4.17891564,-0.0611261392 4.4615284,0.0815430531 4.54784297,0.343848993 Z M13.0728961,13.0001354 C13.3490384,13.0001354 13.5728961,13.223993 13.5728961,13.5001354 C13.5728961,13.7762777 13.3490384,14.0001354 13.0728961,14.0001354 L1.07289606,14.0001354 C0.796753682,14.0001354 0.572896056,13.7762777 0.572896056,13.5001354 C0.572896056,13.223993 0.796753682,13.0001354 1.07289606,13.0001354 L13.0728961,13.0001354 Z" id="形状结合"></path>
            </g>
        </g>
    </g>
</svg>