<?xml version="1.0" encoding="UTF-8"?>
<svg width="16px" height="16px" viewBox="0 0 16 16" version="1.1" xmlns="http://www.w3.org/2000/svg" xmlns:xlink="http://www.w3.org/1999/xlink">
    <title>移除</title>
    <g id="控件" stroke="none" stroke-width="1" fill="none" fill-rule="evenodd">
        <g id="1.全局样式/2.icon/移除">
            <rect id="矩形" x="0" y="0" width="16" height="16"></rect>
            <path d="M9.12855838,1.9 C9.50783131,1.9 9.84906955,2.13041664 9.99079567,2.48221439 L10.777,4.435 L13.3929577,4.43521127 C13.6729895,4.43521127 13.9,4.66222182 13.9,4.94225352 C13.9,5.22228523 13.6729895,5.44929577 13.3929577,5.44929577 L12.632,5.449 L12.6323944,12.5478873 C12.6323944,13.250712 12.0961572,13.8282918 11.4104992,13.8938104 L11.2802817,13.9 L4.51971831,13.9 C3.7729671,13.9 3.16760563,13.2946385 3.16760563,12.5478873 L3.167,5.449 L2.40704225,5.44929577 C2.12701055,5.44929577 1.9,5.22228523 1.9,4.94225352 C1.9,4.66222182 2.12701055,4.43521127 2.40704225,4.43521127 L5.025,4.435 L5.83046024,2.47611134 C5.95784098,2.16627676 6.24030288,1.95206013 6.56618896,1.90828155 L6.69021367,1.9 Z M11.6183099,5.44929577 L4.18169014,5.44929577 L4.18169014,12.5478873 C4.18169014,12.7112392 4.29756011,12.8475281 4.45159384,12.879048 L4.51971831,12.8859155 L11.2802817,12.8859155 C11.4669695,12.8859155 11.6183099,12.7345751 11.6183099,12.5478873 L11.6183099,5.44929577 Z M6.63239437,7.39295775 C6.91242607,7.39295775 7.13943662,7.6199683 7.13943662,7.9 L7.13943662,10.4352113 C7.13943662,10.715243 6.91242607,10.9422535 6.63239437,10.9422535 C6.35236266,10.9422535 6.12535211,10.715243 6.12535211,10.4352113 L6.12535211,7.9 C6.12535211,7.6199683 6.35236266,7.39295775 6.63239437,7.39295775 Z M9.16760563,7.39295775 C9.44763734,7.39295775 9.67464789,7.6199683 9.67464789,7.9 L9.67464789,10.4352113 C9.67464789,10.715243 9.44763734,10.9422535 9.16760563,10.9422535 C8.88757393,10.9422535 8.66056338,10.715243 8.66056338,10.4352113 L8.66056338,7.9 C8.66056338,7.6199683 8.88757393,7.39295775 9.16760563,7.39295775 Z M9.07126761,2.91408451 L6.74647887,2.91408451 L6.12028169,4.43521127 L9.68394366,4.43521127 L9.07126761,2.91408451 Z" id="形状结合" fill="#20242C" fill-rule="nonzero"></path>
        </g>
    </g>
</svg>