<?xml version="1.0" encoding="UTF-8"?>
<svg width="16px" height="16px" viewBox="0 0 16 16" version="1.1" xmlns="http://www.w3.org/2000/svg" xmlns:xlink="http://www.w3.org/1999/xlink">
    <title>线性-正确、成功</title>
    <g id="控件" stroke="none" stroke-width="1" fill="none" fill-rule="evenodd">
        <g id="3.通用元素/3.2图标🟡/C-提示图标/16px/线性/完成">
            <g id="背景" fill="#FFFFFF" fill-opacity="0">
                <rect id="图层样式" x="0" y="0" width="16" height="16" rx="2"></rect>
            </g>
            <path d="M8,0 C12.418278,0 16,3.581722 16,8 C16,12.418278 12.418278,16 8,16 C3.581722,16 0,12.418278 0,8 C0,3.581722 3.581722,0 8,0 Z M8,1.5 C4.41014913,1.5 1.5,4.41014913 1.5,8 C1.5,11.5898509 4.41014913,14.5 8,14.5 C11.5898509,14.5 14.5,11.5898509 14.5,8 C14.5,4.41014913 11.5898509,1.5 8,1.5 Z M11.4361171,5.50209484 C11.743815,5.77939417 11.7684578,6.25362807 11.4911585,6.56132591 L7.5892583,10.8909659 C7.40439209,11.0960978 7.08823615,11.1125264 6.88310426,10.9276602 L4.55524571,8.81387891 C4.24859197,8.5354254 4.22573117,8.06110225 4.50418469,7.75444851 C4.78263854,7.4477944 5.25696192,7.42493259 5.5636172,7.70338517 L6.99763549,9.00551858 C7.06305521,9.06492173 7.15709028,9.07290044 7.23010554,9.03184718 L7.2806297,8.99137117 L10.3767859,5.55704591 C10.6541551,5.24938174 11.1284031,5.22478091 11.4361171,5.50209484 Z" id="形状结合" fill="#00B552"></path>
        </g>
    </g>
</svg>