<?xml version="1.0" encoding="UTF-8"?>
<svg width="16px" height="16px" viewBox="0 0 16 16" version="1.1" xmlns="http://www.w3.org/2000/svg" xmlns:xlink="http://www.w3.org/1999/xlink">
    <title>信息、注意</title>
    <g id="控件" stroke="none" stroke-width="1" fill="none" fill-rule="evenodd">
        <g id="3.通用元素/3.2图标/线性/16/注意">
            <rect id="矩形" x="0" y="0" width="16" height="16"></rect>
            <path d="M8,1 C11.8659932,1 15,4.13400675 15,8 C14.9940698,11.8635342 11.8635342,14.9940698 8,15 C4.13400675,15 1,11.8659932 1,8 C1,4.13400675 4.13400675,1 8,1 Z M8,2.07692308 C4.72877495,2.07692308 2.07692308,4.72877495 2.07692308,8 C2.07692308,11.2712251 4.72877495,13.9230769 8,13.9230769 C11.2712251,13.9230769 13.9230769,11.2712251 13.9230769,8 C13.9171499,4.73123316 11.2687668,2.08285015 8,2.07692308 Z M8,10.5 C8.2962963,10.5 8.46090535,10.6316872 8.49382716,10.8950617 L8.5,11 C8.5,11.2962963 8.36831276,11.4609053 8.10493827,11.4938272 L8,11.5 C7.7037037,11.5 7.53909465,11.3683128 7.50617284,11.1049383 L7.5,11 C7.5,10.7037037 7.63168724,10.5390946 7.89506173,10.5061728 L8,10.5 Z M8,4.0320997 C8.27614237,4.0320997 8.5,4.25595732 8.5,4.5320997 L8.5,9.15868434 C8.5,9.43482672 8.27614237,9.65868434 8,9.65868434 C7.72385763,9.65868434 7.5,9.43482672 7.5,9.15868434 L7.5,4.5320997 C7.5,4.25595732 7.72385763,4.0320997 8,4.0320997 Z" id="形状结合" fill="#505663" fill-rule="nonzero"></path>
        </g>
    </g>
</svg>