<?xml version="1.0" encoding="UTF-8"?>
<svg width="16px" height="16px" viewBox="0 0 16 16" version="1.1" xmlns="http://www.w3.org/2000/svg" xmlns:xlink="http://www.w3.org/1999/xlink">
    <title>删除</title>
    <g id="控件" stroke="none" stroke-width="1" fill="none" fill-rule="evenodd">
        <g id="3.通用元素/3.2图标/线性/16/删除">
            <rect id="矩形" x="0" y="0" width="16" height="16"></rect>
            <path d="M9.45379408,0.9 C9.90260038,0.9 10.306399,1.17265969 10.4741082,1.5889537 L11.405,3.9 L14.5,3.9 C14.8313708,3.9 15.1,4.16862915 15.1,4.5 C15.1,4.83137085 14.8313708,5.1 14.5,5.1 L13.6,5.1 L13.6,13.5 C13.6,14.3345636 12.9610385,15.0198898 12.1456326,15.0934613 L12,15.1 L4,15.1 C3.1163444,15.1 2.4,14.3836556 2.4,13.5 L2.4,5.1 L1.5,5.1 C1.16862915,5.1 0.9,4.83137085 0.9,4.5 C0.9,4.16862915 1.16862915,3.9 1.5,3.9 L4.597,3.9 L5.55104462,1.58173175 C5.70366267,1.2105112 6.04440991,0.955284922 6.43614196,0.907951872 L6.56841951,0.9 Z M12.4,5.1 L3.6,5.1 L3.6,13.5 C3.6,13.6932997 3.7371128,13.8545749 3.91938605,13.8918734 L4,13.9 L12,13.9 C12.2209139,13.9 12.4,13.7209139 12.4,13.5 L12.4,5.1 Z M6.5,7.4 C6.83137085,7.4 7.1,7.66862915 7.1,8 L7.1,11 C7.1,11.3313708 6.83137085,11.6 6.5,11.6 C6.16862915,11.6 5.9,11.3313708 5.9,11 L5.9,8 C5.9,7.66862915 6.16862915,7.4 6.5,7.4 Z M9.5,7.4 C9.83137085,7.4 10.1,7.66862915 10.1,8 L10.1,11 C10.1,11.3313708 9.83137085,11.6 9.5,11.6 C9.16862915,11.6 8.9,11.3313708 8.9,11 L8.9,8 C8.9,7.66862915 9.16862915,7.4 9.5,7.4 Z M9.386,2.1 L6.635,2.1 L5.894,3.9 L10.111,3.9 L9.386,2.1 Z" id="形状结合" fill="#505663" fill-rule="nonzero"></path>
        </g>
    </g>
</svg>