<?xml version="1.0" encoding="UTF-8"?>
<svg width="16px" height="16px" viewBox="0 0 16 16" version="1.1" xmlns="http://www.w3.org/2000/svg" xmlns:xlink="http://www.w3.org/1999/xlink">
    <title>商品</title>
    <g id="控件" stroke="none" stroke-width="1" fill="none" fill-rule="evenodd">
        <g id="3.通用元素/3.2图标/线性/16/商品">
            <g id="背景" fill="#FFFFFF" fill-opacity="0">
                <rect id="图层样式" x="0" y="0" width="16" height="16" rx="2"></rect>
            </g>
            <path d="M12.6458201,2 C13.1681814,2 13.6025392,2.4020453 13.6428396,2.92284968 L14.4166491,12.9228497 C14.459258,13.4734883 14.0474186,13.9544105 13.4967799,13.9970195 L13.4196296,14 L2.58037039,14 C2.02808564,14 1.58037039,13.5522847 1.58037039,13 L1.58335092,12.9228497 L2.35716044,2.92284968 C2.39746078,2.4020453 2.83181862,2 3.35417991,2 L12.6458201,2 Z M12.645,3 L3.35417991,3 L2.58037039,13 L13.4196296,13 L12.645,3 Z M5.92940608,5.92867807 C5.98323827,6.12247396 6.12389536,6.44228377 6.36581596,6.75897982 C6.75471589,7.26808518 7.26585273,7.5625 7.94764713,7.5625 C8.62944152,7.5625 9.14057836,7.26808518 9.52947829,6.75897982 C9.77139889,6.44228377 9.91205598,6.12247396 9.96588817,5.92867807 C10.039796,5.66260994 10.3154009,5.50683323 10.5814691,5.58074105 C10.8475372,5.65464886 11.0033139,5.93025381 10.9294061,6.19632193 C10.8443494,6.50252604 10.6551454,6.93271623 10.3241493,7.36602018 C9.75818811,8.10691482 8.96724162,8.5625 7.94764713,8.5625 C6.92805263,8.5625 6.13710614,8.10691482 5.57114495,7.36602018 C5.24014889,6.93271623 5.05094487,6.50252604 4.96588817,6.19632193 C4.89198036,5.93025381 5.04775707,5.65464886 5.31382519,5.58074105 C5.57989332,5.50683323 5.85549827,5.66260994 5.92940608,5.92867807 Z" id="形状结合" fill="#505663" fill-rule="nonzero"></path>
        </g>
    </g>
</svg>