<?xml version="1.0" encoding="UTF-8"?>
<svg width="16px" height="16px" viewBox="0 0 16 16" version="1.1" xmlns="http://www.w3.org/2000/svg" xmlns:xlink="http://www.w3.org/1999/xlink">
    <title>图片</title>
    <g id="控件" stroke="none" stroke-width="1" fill="none" fill-rule="evenodd">
        <g id="3.通用元素/3.2图标/线性/16/图片">
            <g id="背景" fill="#FFFFFF" fill-opacity="0">
                <rect id="图层样式" x="0" y="0" width="16" height="16" rx="2"></rect>
            </g>
            <path d="M13.8157895,2 C14.1936789,2 14.5,2.33578625 14.5,2.75 L14.5,13.25 C14.5,13.664225 14.1936789,14 13.8157895,14 L2.18421053,14 C1.80633132,14 1.5,13.664225 1.5,13.25 L1.5,2.75 C1.5,2.33578625 1.80633132,2 2.18421053,2 L13.8157895,2 Z M9.64,7.445 L7.32403723,9.66882634 C6.93352583,10.0436408 6.31567352,10.0397002 5.92997469,9.65993524 L5.003,8.747 L2.5,11.828 L2.5,13 L13.5,13 L13.5,11.85 L9.64,7.445 Z M13.5,3 L2.5,3 L2.5,10.242 L4.57416968,7.69009076 C4.74830302,7.4757728 5.06320503,7.44319673 5.27752299,7.61733007 L5.3130288,7.64910366 L6.63157895,8.94736842 L9.32496006,6.36225013 C9.52418517,6.17103305 9.84070109,6.17752484 10.0319182,6.37674994 L13.5,10.332 L13.5,3 Z M5.5,4 C6.05226667,4 6.5,4.44773333 6.5,5 C6.5,5.55226667 6.05226667,6 5.5,6 C4.94773333,6 4.5,5.55226667 4.5,5 C4.5,4.44773333 4.94773333,4 5.5,4 Z" id="形状结合" fill="#505663" fill-rule="nonzero"></path>
        </g>
    </g>
</svg>