<?xml version="1.0" encoding="UTF-8"?>
<svg width="16px" height="16px" viewBox="0 0 16 16" version="1.1" xmlns="http://www.w3.org/2000/svg" xmlns:xlink="http://www.w3.org/1999/xlink">
    <title>增加</title>
    <g id="控件" stroke="none" stroke-width="1" fill="none" fill-rule="evenodd">
        <g id="3.通用元素/3.2图标/线性/16/增加">
            <rect id="矩形" x="0" y="0" width="16" height="16"></rect>
            <path d="M8,1 C8.41421356,1 8.75,1.33578644 8.75,1.75 L8.75,7.25 L14.25,7.25 C14.6642136,7.25 15,7.58578644 15,8 C15,8.41421356 14.6642136,8.75 14.25,8.75 L8.75,8.75 L8.75,14.25 C8.75,14.6642136 8.41421356,15 8,15 C7.58578644,15 7.25,14.6642136 7.25,14.25 L7.25,8.75 L1.75,8.75 C1.33578644,8.75 1,8.41421356 1,8 C1,7.58578644 1.33578644,7.25 1.75,7.25 L7.25,7.25 L7.25,1.75 C7.25,1.33578644 7.58578644,1 8,1 Z" id="形状结合" fill="#505663" fill-rule="nonzero"></path>
        </g>
    </g>
</svg>