<?xml version="1.0" encoding="UTF-8"?>
<svg width="16px" height="16px" viewBox="0 0 16 16" version="1.1" xmlns="http://www.w3.org/2000/svg" xmlns:xlink="http://www.w3.org/1999/xlink">
    <title>指南、教程</title>
    <g id="控件" stroke="none" stroke-width="1" fill="none" fill-rule="evenodd">
        <g id="3.通用元素/3.2图标/线性/16/指南、教程">
            <g id="背景" fill="#FFFFFF" fill-opacity="0">
                <rect id="图层样式" x="0" y="0" width="16" height="16" rx="2"></rect>
            </g>
            <path d="M14,1.5 L14,14.5 L3.05882353,14.5 C2.47405294,14.5 2,14.0149917 2,13.4166667 L2,2.58333333 C2,1.98502639 2.47405294,1.5 3.05882353,1.5 L14,1.5 Z M13,2.5 L8.823,2.5 L8.82352941,8.72222222 L6.82352941,7.27777778 L4.82352941,8.72222222 L4.823,2.5 L3.05882353,2.5 C3.03834916,2.5 3.01549811,2.51814293 3.00535223,2.54876345 L3,2.58333333 L3,13.4166667 C3,13.4677552 3.03151563,13.5 3.05882353,13.5 L13,13.5 L13,2.5 Z M7.823,2.5 L5.823,2.5 L5.823,6.767 L6.82352941,6.04424426 L7.823,6.766 L7.823,2.5 Z" id="形状结合" fill="#505663" fill-rule="nonzero"></path>
        </g>
    </g>
</svg>