<?xml version="1.0" encoding="UTF-8"?>
<svg width="16px" height="16px" viewBox="0 0 16 16" version="1.1" xmlns="http://www.w3.org/2000/svg" xmlns:xlink="http://www.w3.org/1999/xlink">
    <title>搜索</title>
    <g id="控件" stroke="none" stroke-width="1" fill="none" fill-rule="evenodd">
        <g id="3.通用元素/3.2图标/线性/16/搜索">
            <g id="背景" fill="#FFFFFF" fill-opacity="0">
                <rect id="图层样式" x="0" y="0" width="16" height="16" rx="2"></rect>
            </g>
            <path d="M7.4101504,1.5 C10.6742231,1.5 13.3203008,4.14607071 13.3203008,7.41013605 C13.3203008,8.86234464 12.796528,10.1922255 11.9275885,11.2211731 L14.3535529,13.6464461 C14.5488153,13.841708 14.5488157,14.1582905 14.3535539,14.3535529 C14.158292,14.5488153 13.8417095,14.5488157 13.6464471,14.3535539 L11.2211964,11.9275634 C10.1922463,12.7965007 8.86236224,13.3202721 7.4101504,13.3202721 C4.14607773,13.3202721 1.5,10.6742014 1.5,7.41013605 C1.5,4.14607071 4.14607773,1.5 7.4101504,1.5 Z M7.4101504,2.5 C4.69836188,2.5 2.5,4.69835605 2.5,7.41013605 C2.5,10.121916 4.69836188,12.3202721 7.4101504,12.3202721 C10.1219389,12.3202721 12.3203008,10.121916 12.3203008,7.41013605 C12.3203008,4.69835605 10.1219389,2.5 7.4101504,2.5 Z" id="形状结合" fill="#505663" fill-rule="nonzero"></path>
        </g>
    </g>
</svg>