<?xml version="1.0" encoding="UTF-8"?>
<svg width="16px" height="16px" viewBox="0 0 16 16" version="1.1" xmlns="http://www.w3.org/2000/svg" xmlns:xlink="http://www.w3.org/1999/xlink">
    <title>文件</title>
    <g id="控件" stroke="none" stroke-width="1" fill="none" fill-rule="evenodd">
        <g id="3.通用元素/3.2图标/线性/16/文件">
            <g id="背景" fill="#FFFFFF" fill-opacity="0">
                <rect id="图层样式" x="0" y="0" width="16" height="16" rx="2"></rect>
            </g>
            <path d="M10.8421053,1.5 L14,4.75 L14,13.85 C14,14.208995 13.7172421,14.5 13.3684211,14.5 L2.63157895,14.5 C2.28276737,14.5 2,14.208995 2,13.85 L2,2.15 C2,1.79101475 2.28276737,1.5 2.63157895,1.5 L10.8421053,1.5 Z M10.419,2.5 L3,2.5 L3,13.5 L13,13.5 L13,5.156 L10.419,2.5 Z M10.5263158,8.8 C10.8024582,8.8 11.0263158,9.02385763 11.0263158,9.3 C11.0263158,9.57614237 10.8024582,9.8 10.5263158,9.8 L5.47368421,9.8 C5.19754184,9.8 4.97368421,9.57614237 4.97368421,9.3 C4.97368421,9.02385763 5.19754184,8.8 5.47368421,8.8 L10.5263158,8.8 Z M10.5263158,6.2 C10.8024582,6.2 11.0263158,6.42385763 11.0263158,6.7 C11.0263158,6.97614237 10.8024582,7.2 10.5263158,7.2 L5.47368421,7.2 C5.19754184,7.2 4.97368421,6.97614237 4.97368421,6.7 C4.97368421,6.42385763 5.19754184,6.2 5.47368421,6.2 L10.5263158,6.2 Z" id="形状结合" fill="#505663" fill-rule="nonzero"></path>
        </g>
    </g>
</svg>