<?xml version="1.0" encoding="UTF-8"?>
<svg width="16px" height="16px" viewBox="0 0 16 16" version="1.1" xmlns="http://www.w3.org/2000/svg" xmlns:xlink="http://www.w3.org/1999/xlink">
    <title>更新、更换</title>
    <g id="控件" stroke="none" stroke-width="1" fill="none" fill-rule="evenodd">
        <g id="3.通用元素/3.2图标/线性/16/更新">
            <rect id="矩形" x="0" y="0" width="16" height="16"></rect>
            <path d="M8,1.4 C9.77374847,1.4 11.4375619,2.1037369 12.6668974,3.3331026 C12.7899199,3.45612509 12.9461105,3.61930974 13.1304837,3.81666445 L13.4,4.108 L13.4,2.66666667 C13.4,2.3684329 13.6175896,2.12101991 13.9026769,2.07451965 L14,2.06666667 C14.3313708,2.06666667 14.6,2.33529582 14.6,2.66666667 L14.6,5.66666667 C14.6,5.76607792 14.5758234,5.85984242 14.5330291,5.94240121 C14.5264965,5.95485835 14.5228429,5.96143549 14.5190577,5.96795416 C14.5059861,5.99027609 14.4917254,6.01150607 14.4762067,6.03171967 C14.4707272,6.03898604 14.4649298,6.04618459 14.458944,6.05327234 C14.4439979,6.07086968 14.4284355,6.08732287 14.4119952,6.10285675 C14.4080677,6.10658194 14.4032761,6.11097616 14.3983973,6.11530865 L14.3773209,6.13319953 C14.3628566,6.14491248 14.3478367,6.15596638 14.332307,6.16631555 L14.3983973,6.11530865 C14.3653602,6.14464581 14.3299861,6.16967144 14.2929641,6.19042639 C14.2768565,6.19944847 14.2599071,6.20794081 14.2425239,6.21563172 C14.2300622,6.22114787 14.2176381,6.22613826 14.2050993,6.2306937 C14.1875336,6.23708764 14.1695367,6.24269362 14.1511991,6.24745408 C14.1353944,6.25153283 14.1195758,6.25495298 14.1036749,6.25772651 C14.0907121,6.25999672 14.077775,6.26181674 14.0647124,6.26321755 C14.0454331,6.26529133 14.0260198,6.26643377 14.0066089,6.26663936 L11,6.26666667 C10.6686292,6.26666667 10.4,5.99803752 10.4,5.66666667 C10.4,5.33529582 10.6686292,5.06666667 11,5.06666667 L12.65,5.066 L12.2572966,4.63982438 C12.0800207,4.45001863 11.9314014,4.29466283 11.8183641,4.18162553 C10.8118383,3.17507503 9.45221431,2.6 8,2.6 C5.01767085,2.6 2.6,5.01767085 2.6,8 C2.6,10.9823292 5.01767085,13.4 8,13.4 C9.45221994,13.4 10.8118421,12.8249273 11.8183628,11.8183758 C12.0526737,11.5840576 12.4325727,11.5840518 12.6668909,11.8183628 C12.9012091,12.0526737 12.9012149,12.4325727 12.6669039,12.6668909 C11.4375674,13.8962651 9.77375425,14.6 8,14.6 C4.35492915,14.6 1.4,11.6450708 1.4,8 C1.4,4.35492915 4.35492915,1.4 8,1.4 Z" id="形状结合" fill="#505663" fill-rule="nonzero"></path>
        </g>
    </g>
</svg>