<?xml version="1.0" encoding="UTF-8"?>
<svg width="16px" height="16px" viewBox="0 0 16 16" version="1.1" xmlns="http://www.w3.org/2000/svg" xmlns:xlink="http://www.w3.org/1999/xlink">
    <title>正确、成功</title>
    <g id="控件" stroke="none" stroke-width="1" fill="none" fill-rule="evenodd">
        <g id="3.通用元素/3.2图标🟡/C-提示图标/16px/面性/Success">
            <g id="背景" fill="#FFFFFF" fill-opacity="0">
                <rect id="图层样式" x="0" y="0" width="16" height="16" rx="2"></rect>
            </g>
            <path d="M8,0 C12.418278,0 16,3.581722 16,8 C16,12.418278 12.418278,16 8,16 C3.581722,16 0,12.418278 0,8 C0,3.581722 3.581722,0 8,0 Z M11.4361171,5.50209484 C11.1284031,5.22478091 10.6541551,5.24938174 10.3767859,5.55704591 L7.2806297,8.99137117 L7.23010554,9.03184718 C7.15709028,9.07290044 7.06305521,9.06492173 6.99763549,9.00551858 L5.5636172,7.70338517 C5.25696192,7.42493259 4.78263854,7.4477944 4.50418469,7.75444851 C4.22573117,8.06110225 4.24859197,8.5354254 4.55524571,8.81387891 L6.88171103,10.9263999 C7.08823615,11.1125264 7.40439209,11.0960978 7.5892583,10.8909659 L11.4911585,6.56132591 C11.7684578,6.25362807 11.743815,5.77939417 11.4361171,5.50209484 Z" id="icon" fill="#00B552"></path>
        </g>
    </g>
</svg>