<?xml version="1.0" encoding="UTF-8"?>
<svg width="16px" height="16px" viewBox="0 0 16 16" version="1.1" xmlns="http://www.w3.org/2000/svg" xmlns:xlink="http://www.w3.org/1999/xlink">
    <title>正确、完成</title>
    <g id="控件" stroke="none" stroke-width="1" fill="none" fill-rule="evenodd">
        <g id="3.通用元素/3.2图标/线性/16/正确">
            <rect id="矩形" x="0" y="0" width="16" height="16"></rect>
            <path d="M8,0.5 C10.0157483,0.5 11.9061621,1.29957907 13.3032903,2.69669956 C14.7004169,4.09384152 15.5,5.98425496 15.5,8 C15.5,10.0157476 14.7004148,11.906162 13.3032884,13.3032884 C11.906162,14.7004148 10.0157476,15.5 8,15.5 C5.98425496,15.5 4.09384152,14.7004169 2.69669663,13.3032874 C1.29957907,11.9061621 0.5,10.0157483 0.5,8 C0.5,5.98425427 1.29957697,4.09384141 2.69670054,2.69669468 C4.09384141,1.29957697 5.98425427,0.5 8,0.5 Z M8,1.5 C6.25219545,1.5 4.61526653,2.19236234 3.40380732,3.40380146 C2.19236234,4.61526653 1.5,6.25219545 1.5,8 C1.5,9.7478059 2.19236341,11.3847339 3.40380244,12.5961797 C4.61526873,13.8076326 6.25219758,14.5 8,14.5 C9.74780377,14.5 11.3847317,13.8076315 12.5961816,12.5961816 C13.8076315,11.3847317 14.5,9.74780377 14.5,8 C14.5,6.25219758 13.8076326,4.61526873 12.5961826,3.40380537 C11.3847339,2.19236341 9.7478059,1.5 8,1.5 Z M11.8535534,5.54644661 C12.0488155,5.74170876 12.0488155,6.05829124 11.8535534,6.25355339 L7.65355339,10.4535534 C7.45829124,10.6488155 7.14170876,10.6488155 6.94644661,10.4535534 L4.84644661,8.35355339 C4.65118446,8.15829124 4.65118446,7.84170876 4.84644661,7.64644661 C5.04170876,7.45118446 5.35829124,7.45118446 5.55355339,7.64644661 L7.3,9.393 L11.1464466,5.54644661 C11.3417088,5.35118446 11.6582912,5.35118446 11.8535534,5.54644661 Z" id="形状结合" fill="#505663" fill-rule="nonzero"></path>
        </g>
    </g>
</svg>