<?xml version="1.0" encoding="UTF-8"?>
<svg width="16px" height="16px" viewBox="0 0 16 16" version="1.1" xmlns="http://www.w3.org/2000/svg" xmlns:xlink="http://www.w3.org/1999/xlink">
    <title>等待</title>
    <g id="控件" stroke="none" stroke-width="1" fill="none" fill-rule="evenodd">
        <g id="3.通用元素/3.2图标🟡/C-提示图标/16px/面性/Wait">
            <g id="背景" fill="#FFFFFF" fill-opacity="0">
                <rect id="图层样式" x="0" y="0" width="16" height="16" rx="2"></rect>
            </g>
            <path d="M8,0 C12.418278,0 16,3.581722 16,8 C16,12.418278 12.418278,16 8,16 C3.581722,16 0,12.418278 0,8 C0,3.581722 3.581722,0 8,0 Z M8,3 C7.58578644,3 7.25,3.33578644 7.25,3.75 L7.25,8.25 C7.25,8.52614237 7.47385763,8.75 7.75,8.75 L11.25,8.75 C11.6642136,8.75 12,8.41421356 12,8 C12,7.58574911 11.6642509,7.24989669 11.25,7.24976923 L8.94999999,7.24906154 C8.8395671,7.24896601 8.75006155,7.15943292 8.75,7.049 L8.75,3.75 C8.75,3.33578644 8.41421356,3 8,3 Z" id="icon" fill="#006BFD"></path>
        </g>
    </g>
</svg>