<?xml version="1.0" encoding="UTF-8"?>
<svg width="16px" height="16px" viewBox="0 0 16 16" version="1.1" xmlns="http://www.w3.org/2000/svg" xmlns:xlink="http://www.w3.org/1999/xlink">
    <title>编辑</title>
    <g id="控件" stroke="none" stroke-width="1" fill="none" fill-rule="evenodd">
        <g id="3.通用元素/3.2图标/线性/16/编辑">
            <g id="背景" fill="#FFFFFF" fill-opacity="0">
                <rect id="图层样式" x="0" y="0" width="16" height="16" rx="2"></rect>
            </g>
            <g id="编组" transform="translate(1.500000, 1.500000)" fill="#505663" fill-rule="nonzero">
                <rect id="矩形" x="0" y="12.2931461" width="13" height="1" rx="0.5"></rect>
                <path d="M8.37638107,0.0884932388 C8.5712756,-0.0464569657 8.84066722,-0.0270842778 9.0139386,0.146776926 L11.2140387,2.34784083 C11.4090423,2.5432403 11.4090424,2.85970312 11.2140391,3.05510278 L3.48306441,10.7894789 C3.38928991,10.8832946 3.26207962,10.9360033 3.12943327,10.9360033 L0.924657534,10.9360033 C0.648515159,10.9360033 0.424657534,10.7121456 0.424657534,10.4360033 L0.424657534,8.24575203 C0.424657534,8.11324753 0.477253788,7.98616133 0.570892493,7.89241041 L8.30712102,0.146911163 L8.37638107,0.0884932388 Z M8.66,1.20714612 L1.424,8.45214612 L1.424,9.93514612 L2.922,9.93514612 L10.153,2.70114612 L8.66,1.20714612 Z" id="路径"></path>
            </g>
        </g>
    </g>
</svg>