<?xml version="1.0" encoding="UTF-8"?>
<svg width="16px" height="16px" viewBox="0 0 16 16" version="1.1" xmlns="http://www.w3.org/2000/svg" xmlns:xlink="http://www.w3.org/1999/xlink">
    <title>订单</title>
    <g id="控件" stroke="none" stroke-width="1" fill="none" fill-rule="evenodd">
        <g id="1.全局样式/2.icon/我的订单" fill="#20242C" fill-rule="nonzero">
            <path d="M11,1 C11.2761424,1 11.5,1.22385763 11.5,1.5 L11.5,2 L13.25,2 C13.9255408,2 14.5,2.49683473 14.5,3.14864865 L14.5,13.8513514 C14.5,14.503173 13.9255437,15 13.25,15 L2.75,15 C2.07446458,15 1.5,14.5031709 1.5,13.8513514 L1.5,3.14864865 C1.5,2.49683677 2.07446752,2 2.75,2 L4.48435608,2 L4.5,2.001 L4.5,1.5 C4.5,1.25454011 4.67687516,1.05039163 4.91012437,1.00805567 L5,1 L11,1 Z M4.50065755,2.99973929 C4.49524501,2.99991265 4.48981074,3 4.48435608,3 L2.75,3 C2.59710498,3 2.5,3.08398269 2.5,3.14864865 L2.5,13.8513514 C2.5,13.9160224 2.59710015,14 2.75,14 L13.25,14 C13.4029063,14 13.5,13.916027 13.5,13.8513514 L13.5,3.14864865 C13.5,3.08397801 13.4029014,3 13.25,3 L11.5,3 L11.5,3.5 C11.5,3.77614237 11.2761424,4 11,4 L5,4 C4.72385763,4 4.5,3.77614237 4.5,3.5 L4.50065755,2.99973929 Z M11,9.5 C11.2761424,9.5 11.5,9.72385763 11.5,10 C11.5,10.2761424 11.2761424,10.5 11,10.5 L5,10.5 C4.72385763,10.5 4.5,10.2761424 4.5,10 C4.5,9.72385763 4.72385763,9.5 5,9.5 L11,9.5 Z M9,6.5 C9.27614237,6.5 9.5,6.72385763 9.5,7 C9.5,7.27614237 9.27614237,7.5 9,7.5 L5,7.5 C4.72385763,7.5 4.5,7.27614237 4.5,7 C4.5,6.72385763 4.72385763,6.5 5,6.5 L9,6.5 Z M10.5,2 L5.5,2 L5.5,3 L10.5,3 L10.5,2 Z" id="形状结合"></path>
        </g>
    </g>
</svg>