<?xml version="1.0" encoding="UTF-8"?>
<svg width="16px" height="16px" viewBox="0 0 16 16" version="1.1" xmlns="http://www.w3.org/2000/svg" xmlns:xlink="http://www.w3.org/1999/xlink">
    <title>购物车</title>
    <g id="控件" stroke="none" stroke-width="1" fill="none" fill-rule="evenodd">
        <g id="1.全局样式/2.icon/我的购物车" fill="#20242C" fill-rule="nonzero">
            <g id="编组" transform="translate(0.500000, 1.000000)">
                <path d="M3.25,13.5 C3.66421356,13.5 4,13.1642136 4,12.75 C4,12.3357864 3.66421356,12 3.25,12 C2.83578644,12 2.5,12.3357864 2.5,12.75 C2.5,13.1642136 2.83578644,13.5 3.25,13.5 Z M11.25,13.5 C11.6642136,13.5 12,13.1642136 12,12.75 C12,12.3357864 11.6642136,12 11.25,12 C10.8357864,12 10.5,12.3357864 10.5,12.75 C10.5,13.1642136 10.8357864,13.5 11.25,13.5 Z M2.43640971,0 C3.07680568,0 3.60352747,0.486697036 3.66686614,1.11038218 L3.67305349,1.25899095 L3.642,3 L13.0357592,3 C13.7188482,3 14.2726013,3.55375307 14.2726013,4.23684211 C14.2726013,4.3465804 14.2579968,4.45583065 14.2291725,4.56171575 L13.4053421,7.58803154 C13.2587833,8.12641099 12.7699,8.5 12.2119288,8.5 L3.543,8.5 L3.52081601,9.75891663 C3.51847362,9.88969993 3.62259556,9.99761963 3.75337887,9.99996202 L12.5,10 C12.7761424,10 13,10.2238576 13,10.5 C13,10.7761424 12.7761424,11 12.5,11 L3.73547129,10.9998017 C3.0524918,10.9875692 2.5087439,10.4239885 2.52097636,9.74100905 L2.67321384,1.24108337 C2.67325182,1.10603782 2.567214,1 2.43640971,1 L0.5,1 C0.223857625,1 0,0.776142375 0,0.5 C0,0.223857625 0.223857625,0 0.5,0 L2.43640971,0 Z M3.561,7.5 L12.2119288,7.5 C12.3187743,7.5 12.4123903,7.42846168 12.4404547,7.32536774 L13.2642851,4.29905195 C13.2698047,4.27877608 13.2726013,4.25785582 13.2726013,4.23684211 C13.2726013,4.10603782 13.1665634,4 13.0357592,4 L3.624,4 L3.561,7.5 Z" id="形状结合"></path>
            </g>
        </g>
    </g>
</svg>