<?xml version="1.0" encoding="UTF-8"?>
<svg width="16px" height="16px" viewBox="0 0 16 16" version="1.1" xmlns="http://www.w3.org/2000/svg" xmlns:xlink="http://www.w3.org/1999/xlink">
    <title>重选、交换</title>
    <g id="控件" stroke="none" stroke-width="1" fill="none" fill-rule="evenodd">
        <g id="3.通用元素/3.2图标/线性/16/重选、交换">
            <g id="背景" fill="#FFFFFF" fill-opacity="0">
                <rect id="图层样式" x="0" y="0" width="16" height="16" rx="2"></rect>
            </g>
            <path d="M13.5,1.5 C14.0522847,1.5 14.5,1.94771525 14.5,2.5 L14.5,13.5 C14.5,14.0522847 14.0522847,14.5 13.5,14.5 L2.5,14.5 C1.94771525,14.5 1.5,14.0522847 1.5,13.5 L1.5,2.5 C1.5,1.94771525 1.94771525,1.5 2.5,1.5 L13.5,1.5 Z M13.5,2.5 L2.5,2.5 L2.5,13.5 L13.5,13.5 L13.5,2.5 Z M4.503,8.841 L4.50881955,8.80601408 C4.51720687,8.76171943 4.53193251,8.71762597 4.55295902,8.67576748 L4.56826466,8.64764043 L4.57421703,8.63771062 C4.57854229,8.63070736 4.58305802,8.62378408 4.5877646,8.61694791 C4.59938239,8.60010304 4.61176037,8.58426982 4.62502785,8.56924039 L4.631,8.562 L4.686,8.511 L4.71472229,8.48923355 C4.72804866,8.48003846 4.7419278,8.47134779 4.75624106,8.46334048 C4.77156987,8.45471379 4.78762881,8.4468489 4.80399551,8.43988934 C4.81348855,8.43582665 4.82328792,8.43200394 4.83323172,8.42848688 C4.85307384,8.4215435 4.87303027,8.41589206 4.89321958,8.41149663 L4.91596727,8.40703105 C4.93309416,8.40419138 4.95012374,8.40219767 4.96720846,8.40107618 C4.97758629,8.40037156 4.98874976,8.4 5,8.4 L11,8.4 C11.2761424,8.4 11.5,8.62385763 11.5,8.9 C11.5,9.17614237 11.2761424,9.4 11,9.4 L6.302,9.399 L7.6678157,10.6283529 C7.87307071,10.8130824 7.88970992,11.1292274 7.70498041,11.3344824 C7.5202509,11.5397374 7.20410598,11.5563766 6.99885097,11.3716471 L4.66551763,9.27164707 L4.65252966,9.25953416 L4.629,9.235 L4.618,9.222 L4.60832165,9.21081771 L4.612,9.214 L4.618,9.222 L4.629,9.235 L4.66551763,9.27164707 L4.612,9.214 L4.58923355,9.18527771 C4.58003846,9.17195134 4.57134779,9.1580722 4.56334048,9.14375894 C4.55471379,9.12843013 4.5468489,9.11237119 4.53988934,9.09600449 C4.53582665,9.08651145 4.53200394,9.07671208 4.52848688,9.06676828 C4.5215435,9.04692616 4.51589206,9.02696973 4.51149663,9.00678042 C4.50992394,8.99990317 4.50847754,8.992484 4.50719712,8.98500816 C4.50342164,8.96262693 4.50111564,8.94022116 4.50031496,8.91775699 L4.50025693,8.88363117 L4.5017772,8.85755378 L4.503,8.841 Z M9.00114903,4.62835293 L11.3344824,6.72835293 L11.3474703,6.74046584 L11.37,6.764 L11.381,6.777 L11.3916783,6.78918229 L11.387,6.785 L11.381,6.777 L11.37,6.764 L11.3344824,6.72835293 L11.387,6.785 L11.4107664,6.81472229 C11.4199615,6.82804866 11.4286522,6.8419278 11.4366595,6.85624106 C11.4452862,6.87156987 11.4531511,6.88762881 11.4601107,6.90399551 C11.4641734,6.91348855 11.4679961,6.92328792 11.4715131,6.93323172 C11.4784565,6.95307384 11.4841079,6.97303027 11.4885034,6.99321958 C11.4901507,7.00043834 11.4916564,7.00820477 11.4929801,7.01603306 C11.4957527,7.03276391 11.4977241,7.04945829 11.4988571,7.06620705 C11.49962,7.07733544 11.5,7.08862335 11.5,7.1 L11.4998798,7.11134964 L11.4988692,7.13392686 L11.497,7.147 L11.4911805,7.19398592 C11.4827931,7.23828057 11.4680675,7.28237403 11.447041,7.32423252 L11.4317353,7.35235957 L11.425783,7.36228938 C11.4214577,7.36929264 11.416942,7.37621592 11.4122354,7.38305209 C11.4006176,7.39989696 11.3882396,7.41573018 11.3749721,7.43075961 L11.368,7.437 L11.313,7.488 L11.2852777,7.51076645 C11.2719513,7.51996154 11.2580722,7.52865221 11.2437589,7.53665952 C11.2284301,7.54528621 11.2123712,7.5531511 11.1960045,7.56011066 C11.1865114,7.56417335 11.1767121,7.56799606 11.1667683,7.57151312 C11.1469262,7.5784565 11.1269697,7.58410794 11.1067804,7.58850337 C11.0995617,7.59015071 11.0917952,7.59165636 11.0839669,7.59298008 C11.0626126,7.59653563 11.0412166,7.59875916 11.0197628,7.59960954 L5,7.6 C4.72385763,7.6 4.5,7.37614237 4.5,7.1 C4.5,6.82385763 4.72385763,6.6 5,6.6 L9.696,6.599 L8.3321843,5.37164707 C8.12692929,5.18691756 8.11029008,4.87077264 8.29501959,4.66551763 C8.4797491,4.46026262 8.79589402,4.44362342 9.00114903,4.62835293 Z" id="形状结合" fill="#505663" fill-rule="nonzero"></path>
        </g>
    </g>
</svg>