<?xml version="1.0" encoding="UTF-8"?>
<svg width="16px" height="16px" viewBox="0 0 16 16" version="1.1" xmlns="http://www.w3.org/2000/svg" xmlns:xlink="http://www.w3.org/1999/xlink">
    <title>错误、关闭</title>
    <g id="控件" stroke="none" stroke-width="1" fill="none" fill-rule="evenodd">
        <g id="3.通用元素/3.2图标/线性/16/错误、关闭">
            <rect id="矩形" x="0" y="0" width="16" height="16"></rect>
            <g id="编组" transform="translate(1.000000, 1.000000)" stroke="#505663" stroke-linecap="round">
                <path d="M7,14 C10.865995,14 14,10.865995 14,7 C14,3.134005 10.865995,0 7,0 C3.134005,0 0,3.134005 0,7 C0,10.865995 3.134005,14 7,14 Z" id="路径"></path>
                <line x1="8.979845" y1="5.02012" x2="5.02005" y2="8.979915" id="路径"></line>
                <line x1="5.020155" y1="5.02012" x2="8.97995" y2="8.979915" id="路径"></line>
            </g>
            <path d="M8,0.5 C12.1421374,0.5 15.5,3.85786263 15.5,8 C15.5,12.1421374 12.1421374,15.5 8,15.5 C3.85786263,15.5 0.5,12.1421374 0.5,8 C0.5,3.85786263 3.85786263,0.5 8,0.5 Z M8,1.5 C4.41014737,1.5 1.5,4.41014737 1.5,8 C1.5,11.5898526 4.41014737,14.5 8,14.5 C11.5898526,14.5 14.5,11.5898526 14.5,8 C14.5,4.41014737 11.5898526,1.5 8,1.5 Z M6.37370839,5.66656661 L8,7.293 L9.62629161,5.66656661 C9.82155376,5.47130446 10.1381362,5.47130446 10.3333984,5.66656661 C10.5286605,5.86182876 10.5286605,6.17841124 10.3333984,6.37367339 L8.707,8 L10.3335034,9.62636161 C10.5287655,9.82162376 10.5287655,10.1382062 10.3335034,10.3334684 C10.1382412,10.5287305 9.82165876,10.5287305 9.62639661,10.3334684 L8,8.707 L6.37360339,10.3334684 C6.17834124,10.5287305 5.86175876,10.5287305 5.66649661,10.3334684 C5.47123446,10.1382062 5.47123446,9.82162376 5.66649661,9.62636161 L7.293,8 L5.66660161,6.37367339 C5.47133946,6.17841124 5.47133946,5.86182876 5.66660161,5.66656661 C5.86186376,5.47130446 6.17844624,5.47130446 6.37370839,5.66656661 Z" id="形状结合" fill="#505663" fill-rule="nonzero"></path>
        </g>
    </g>
</svg>