<?xml version="1.0" encoding="UTF-8"?>
<svg width="16px" height="16px" viewBox="0 0 16 16" version="1.1" xmlns="http://www.w3.org/2000/svg" xmlns:xlink="http://www.w3.org/1999/xlink">
    <title>首页、店铺、商家</title>
    <g id="控件" stroke="none" stroke-width="1" fill="none" fill-rule="evenodd">
        <g id="3.通用元素/3.2图标/线性/16/店铺">
            <rect id="矩形" x="0" y="0" width="16" height="16"></rect>
            <path d="M13.0628966,1 C13.47613,1 13.846802,1.25417552 13.9957123,1.63964605 L14.9564022,4.12649707 C15.393017,5.2567954 15.0085272,6.44311062 14.1769412,7.1461086 C14.190375,7.18718267 14.1965932,7.23175405 14.1965932,7.27777778 L14.1965932,14 C14.1965932,14.5522847 13.748878,15 13.1965932,15 L2.64102323,15 C2.08873848,15 1.64102323,14.5522847 1.64102323,14 L1.64102323,7.27777778 C1.64102323,7.23175405 1.6472415,7.18718267 1.65888372,7.14485797 C0.82922174,6.44376536 0.44501887,5.25799931 0.881319557,4.12810447 L1.84218324,1.63977561 C1.99105825,1.25423706 2.36176483,1 2.77504892,1 Z M10.269,6.662 L10.1967169,6.76134715 C9.74094112,7.33912641 9.05125044,7.7238084 8.27050655,7.77253142 L8.10186268,7.77777778 L7.73410712,7.77777778 C6.88444005,7.77777778 6.12758409,7.38039636 5.6392529,6.76134715 L5.566,6.662 L5.49331279,6.76101437 C5.03592286,7.33885951 4.34425956,7.72377429 3.56288679,7.77252806 L3.39412934,7.77777778 C3.13022544,7.77777778 2.87767103,7.74069696 2.64032093,7.67209657 L2.64102323,14 L13.1965932,14 L13.1974106,7.67175487 C12.9596493,7.74057405 12.7066332,7.77777778 12.4422377,7.77777778 C11.5920843,7.77777778 10.8329594,7.38011861 10.3427954,6.76099462 L10.269,6.662 Z M13.0628966,2 L2.77504892,2 L1.8141861,4.48832665 C1.38918222,5.58896595 2.20965919,6.77777778 3.39412934,6.77777778 C4.31634032,6.77777778 5.06744046,6.0298463 5.06744046,5.11111111 C5.06744046,4.44444444 6.06744046,4.44444444 6.06744046,5.11111111 C6.06744046,6.03158263 6.81363561,6.77777778 7.73410712,6.77777778 L8.10186268,6.77777778 C9.02233419,6.77777778 9.76852934,6.03158263 9.76852934,5.11111111 C9.76852934,4.44444444 10.7685293,4.44444444 10.7685293,5.11111111 C10.7685293,6.02974283 11.5199228,6.77777778 12.4422377,6.77777778 C13.6276187,6.77777778 14.4489423,5.58800231 14.0235826,4.48684086 L13.0628966,2 Z" id="形状结合" fill="#505663" fill-rule="nonzero"></path>
        </g>
    </g>
</svg>